<svg xmlns="http://www.w3.org/2000/svg" version="1.1" xmlns:xlink="http://www.w3.org/1999/xlink" xmlns:svgjs="http://svgjs.dev/svgjs" viewBox="0 0 8.904595433989869 3.2306415728092537"><g transform="matrix(1,0,0,1,2.841163361542286,1.0528207864046268)"><rect width="8.904595433989869" height="8.904595433989869" x="-2.8411633615422858" y="-3.8897977169949343" fill="#102036"></rect><g><path d=" M 0.492 0.594 L 0.41250000000000003 0.594 L 0.41250000000000003 1.0965 L 0.51 1.0965 L 0.51 1.125 L 0.0225 1.125 L 0.0225 1.0965 L 0.12 1.0965 L 0.12 0.10349999999999993 L 0.0225 0.10349999999999993 L 0.0225 0.07499999999999996 L 0.47550000000000003 0.07499999999999996 Q 0.6705 0.07499999999999996 0.75225 0.09525000000000006 Q 0.834 0.11549999999999994 0.867 0.14400000000000002 Q 0.9390000000000001 0.2025 0.9390000000000001 0.32999999999999996 Q 0.9390000000000001 0.4575 0.876 0.51225 Q 0.8130000000000001 0.567 0.684 0.5775 L 0.684 0.582 Q 0.8055 0.5985 0.8535 0.6539999999999999 Q 0.9015 0.7095 0.9015 0.84 L 0.9015 0.9195 Q 0.9015 0.9975 0.9097500000000001 1.0245 Q 0.918 1.0515 0.9450000000000001 1.0515 Q 0.972 1.0515 0.98775 1.02675 Q 1.0035 1.002 1.0170000000000001 0.9225 L 1.0425 0.9255 Q 1.026 1.053 0.98475 1.0965 Q 0.9435 1.14 0.8205 1.14 Q 0.6975 1.14 0.64575 1.08225 Q 0.594 1.0245 0.594 0.8654999999999999 L 0.594 0.756 Q 0.594 0.6719999999999999 0.57225 0.633 Q 0.5505 0.594 0.492 0.594 M 0.41250000000000003 0.10349999999999993 L 0.41250000000000003 0.5655 L 0.4605 0.5655 Q 0.546 0.5655 0.58725 0.513 Q 0.6285000000000001 0.4605 0.6285000000000001 0.34199999999999997 L 0.6285000000000001 0.2985 Q 0.6285000000000001 0.17999999999999994 0.58875 0.14174999999999993 Q 0.549 0.10349999999999993 0.462 0.10349999999999993 L 0.41250000000000003 0.10349999999999993 M 1.178240478515625 1.04025 Q 1.081490478515625 0.9405 1.081490478515625 0.76275 Q 1.081490478515625 0.585 1.190240478515625 0.49049999999999994 Q 1.298990478515625 0.396 1.466990478515625 0.396 Q 1.807490478515625 0.396 1.7939904785156249 0.738 L 1.370990478515625 0.738 L 1.370990478515625 0.7965 Q 1.370990478515625 0.9435 1.408490478515625 1.0185 Q 1.445990478515625 1.0935 1.538990478515625 1.0935 Q 1.712990478515625 1.0935 1.766990478515625 0.9075 L 1.7939904785156249 0.912 Q 1.7654904785156251 1.02 1.691240478515625 1.08 Q 1.616990478515625 1.14 1.468490478515625 1.14 Q 1.274990478515625 1.14 1.178240478515625 1.04025 M 1.372490478515625 0.708 L 1.526990478515625 0.708 L 1.526990478515625 0.6345000000000001 Q 1.526990478515625 0.513 1.5127404785156249 0.46875 Q 1.498490478515625 0.4245 1.455740478515625 0.4245 Q 1.412990478515625 0.4245 1.392740478515625 0.47175 Q 1.372490478515625 0.519 1.372490478515625 0.6345000000000001 L 1.372490478515625 0.708 M 1.867462646484375 1.14 L 1.867462646484375 0.8714999999999999 L 1.885462646484375 0.8714999999999999 Q 1.924462646484375 1.002 1.990462646484375 1.0545 Q 2.056462646484375 1.107 2.155462646484375 1.107 Q 2.308462646484375 1.107 2.308462646484375 1.0095 Q 2.308462646484375 0.9675 2.270962646484375 0.9465 Q 2.212462646484375 0.9135 2.120962646484375 0.8955 Q 2.018962646484375 0.8685 1.9499626464843751 0.8235 Q 1.867462646484375 0.7695000000000001 1.867462646484375 0.6525 Q 1.867462646484375 0.5355 1.939462646484375 0.46575 Q 2.0114626464843752 0.396 2.131462646484375 0.396 Q 2.204962646484375 0.396 2.282962646484375 0.4305 Q 2.311462646484375 0.4425 2.326462646484375 0.4425 Q 2.341462646484375 0.4425 2.351962646484375 0.43199999999999994 Q 2.362462646484375 0.4215 2.377462646484375 0.393 L 2.393962646484375 0.393 L 2.393962646484375 0.6224999999999999 L 2.375962646484375 0.6224999999999999 Q 2.299462646484375 0.4275 2.138962646484375 0.4275 Q 2.068462646484375 0.4275 2.033962646484375 0.45225000000000004 Q 1.999462646484375 0.477 1.999462646484375 0.5145 Q 1.999462646484375 0.537 2.009962646484375 0.54975 Q 2.020462646484375 0.5625 2.026462646484375 0.5685 Q 2.032462646484375 0.5745 2.045962646484375 0.5812499999999999 Q 2.059462646484375 0.588 2.068462646484375 0.59175 Q 2.077462646484375 0.5955 2.096212646484375 0.6015 Q 2.114962646484375 0.6075 2.123962646484375 0.609 Q 2.225962646484375 0.6345000000000001 2.270962646484375 0.65325 Q 2.315962646484375 0.6719999999999999 2.356462646484375 0.6990000000000001 Q 2.438962646484375 0.756 2.438962646484375 0.88275 Q 2.438962646484375 1.0095 2.3639626464843753 1.07475 Q 2.288962646484375 1.14 2.158462646484375 1.14 Q 2.065462646484375 1.14 1.978462646484375 1.0965 Q 1.960462646484375 1.0845 1.9499626464843751 1.0845 Q 1.916962646484375 1.0845 1.885462646484375 1.14 L 1.867462646484375 1.14 M 2.591244140625 0.267 Q 2.557494140625 0.22650000000000003 2.557494140625 0.16649999999999998 Q 2.557494140625 0.10650000000000004 2.594244140625 0.0674999999999999 Q 2.630994140625 0.02849999999999997 2.705994140625 0.02849999999999997 Q 2.780994140625 0.02849999999999997 2.819994140625 0.06374999999999997 Q 2.858994140625 0.09899999999999998 2.858994140625 0.16425 Q 2.858994140625 0.22949999999999993 2.821494140625 0.26849999999999996 Q 2.783994140625 0.3075 2.704494140625 0.3075 Q 2.624994140625 0.3075 2.591244140625 0.267 M 2.477994140625 0.41100000000000003 L 2.845494140625 0.41100000000000003 L 2.845494140625 1.098 L 2.929494140625 1.098 L 2.929494140625 1.125 L 2.483994140625 1.125 L 2.483994140625 1.098 L 2.566494140625 1.098 L 2.566494140625 0.43799999999999994 L 2.477994140625 0.43799999999999994 L 2.477994140625 0.41100000000000003 M 2.95951904296875 0 L 3.32101904296875 0 L 3.32101904296875 0.5489999999999999 Q 3.34501904296875 0.48 3.39451904296875 0.43799999999999994 Q 3.44401904296875 0.396 3.54451904296875 0.396 Q 3.77701904296875 0.396 3.77701904296875 0.6465 L 3.77701904296875 1.098 L 3.86101904296875 1.098 L 3.86101904296875 1.125 L 3.43651904296875 1.125 L 3.43651904296875 1.098 L 3.49801904296875 1.098 L 3.49801904296875 0.6105 Q 3.49801904296875 0.5205 3.48601904296875 0.49424999999999997 Q 3.47401904296875 0.46799999999999997 3.44251904296875 0.46799999999999997 Q 3.39451904296875 0.46799999999999997 3.35776904296875 0.531 Q 3.32101904296875 0.594 3.32101904296875 0.6839999999999999 L 3.32101904296875 1.098 L 3.38551904296875 1.098 L 3.38551904296875 1.125 L 2.95951904296875 1.125 L 2.95951904296875 1.098 L 3.04201904296875 1.098 L 3.04201904296875 0.026999999999999913 L 2.95951904296875 0.026999999999999913 L 2.95951904296875 0 M 4.731031494140625 1.125 L 4.3890314941406245 1.125 L 4.372531494140625 1.0155 Q 4.348531494140625 1.0755 4.301281494140625 1.10775 Q 4.254031494140625 1.14 4.161031494140625 1.14 Q 3.928531494140625 1.14 3.928531494140625 0.8895 L 3.928531494140625 0.43799999999999994 L 3.844531494140625 0.43799999999999994 L 3.844531494140625 0.41100000000000003 L 4.207531494140625 0.41100000000000003 L 4.207531494140625 0.9255 Q 4.207531494140625 1.0155 4.220281494140625 1.044 Q 4.233031494140625 1.0725 4.271281494140625 1.0725 Q 4.309531494140625 1.0725 4.339531494140625 1.026 Q 4.369531494140625 0.9795 4.369531494140625 0.897 L 4.369531494140625 0.43799999999999994 L 4.300531494140625 0.43799999999999994 L 4.300531494140625 0.41100000000000003 L 4.6485314941406255 0.41100000000000003 L 4.6485314941406255 1.098 L 4.731031494140625 1.098 L 4.731031494140625 1.125 M 5.293502197265625 0.51375 Q 5.278502197265625 0.4605 5.235002197265625 0.4605 Q 5.191502197265625 0.4605 5.157002197265625 0.5145 Q 5.122502197265625 0.5685 5.122502197265625 0.663 L 5.122502197265625 0.942 Q 5.122502197265625 1.0065 5.148752197265625 1.0515 Q 5.175002197265625 1.0965 5.223752197265625 1.0965 Q 5.272502197265625 1.0965 5.290502197265625 1.0305 Q 5.308502197265625 0.9645 5.308502197265625 0.7995 L 5.308502197265625 0.7215 Q 5.308502197265625 0.567 5.293502197265625 0.51375 M 5.122502197265625 0 L 5.122502197265625 0.525 Q 5.179502197265625 0.396 5.317502197265625 0.396 Q 5.598002197265625 0.396 5.598002197265625 0.7695000000000001 Q 5.598002197265625 0.96 5.520752197265625 1.05 Q 5.443502197265625 1.14 5.289002197265625 1.14 Q 5.211002197265625 1.14 5.169752197265625 1.116 Q 5.128502197265625 1.092 5.113502197265625 1.0365 L 5.103002197265625 1.125 L 4.761002197265625 1.125 L 4.761002197265625 1.098 L 4.843502197265625 1.098 L 4.843502197265625 0.026999999999999913 L 4.761002197265625 0.026999999999999913 L 4.761002197265625 0 L 5.122502197265625 0" fill="#ffffff" fill-rule="nonzero"></path></g><g></g><g clip-path="url(#SvgjsClipPath1002)"><g clip-path="url(#SvgjsClipPath1000adf64b35-4d42-47e5-8a8a-2afa8f335388)"><path d=" M -2.2127900554206144 0.3184238268759627 L -2.2127900554206144 1.7424099541914204 L -2.4057525293290793 1.7424099541914204 L -2.4057525293290793 0.4409456765191999 Z" fill="#3682ae" transform="matrix(1,0,0,1,0,0)" fill-rule="nonzero"></path></g><g clip-path="url(#SvgjsClipPath1000adf64b35-4d42-47e5-8a8a-2afa8f335388)"><path d=" M -0.7888039281051564 -0.22667097376138956 L -0.9817664020136219 -0.3491928234046267 L -1.4033482286462162 -0.6174099541914204 L -2.0169486012239224 -0.22667097376138956 L -2.0169486012239224 -0.13985319933198492 L -2.0169486012239224 0.0019719771618239568 L -2.0169486012239224 1.4336747155776934 L -0.7888039281051564 1.4336747155776934 L -0.7888039281051564 0.42357740199350213 L -0.7888039281051564 0.19493445107028873 L -0.9817664020136219 0.07238900322796782 L -1.4033482286462162 -0.19580452935974207 L -1.6281446731187657 -0.053011826703496356 L -1.6281446731187657 0.17659865038215405 L -1.4033482286462162 0.0328384215634715 L -0.9817664020136219 0.30105555235026504 L -0.9817664020136219 1.2407358398683124 L -1.8240097255145415 1.2407358398683124 L -1.8240097255145415 -0.12054987248141324 L -1.4033482286462162 -0.38876700326820696 L -0.9817664020136219 -0.12054987248141324 L -0.7888039281051564 0.0019719771618239568 L -0.5929624739084649 0.12642887912993483 L -0.5929624739084649 1.7423391595941693 L -0.3999999999999999 1.7423391595941693 L -0.3999999999999999 0.02030777784995852 Z" fill="#3682ae" transform="matrix(1,0,0,1,0,0)" fill-rule="nonzero"></path></g><g clip-path="url(#SvgjsClipPath1000adf64b35-4d42-47e5-8a8a-2afa8f335388)"><path d=" M -2.0169486012239224 1.5493766856857043 L -0.7888039281051564 1.5493766856857043 L -0.7888039281051564 1.7423391595941693 L -2.0169486012239224 1.7423391595941693 Z" fill="#a5b2ba" transform="matrix(1,0,0,1,0,0)" fill-rule="nonzero"></path></g></g></g><defs><clipPath id="SvgjsClipPath1002"><path d=" M -2.4057525293290793 -0.6174099541914204 h 2.0057525293290794 v 2.359819908382841 h -2.0057525293290794 Z"></path></clipPath><clipPath id="SvgjsClipPath1000adf64b35-4d42-47e5-8a8a-2afa8f335388"><path d=" M -2.4057525293290793 -0.6174099541914204 L -0.3999999999999999 -0.6174099541914204 L -0.3999999999999999 1.7424099541914204 L -2.4057525293290793 1.7424099541914204 Z"></path></clipPath></defs></svg>