<svg xmlns="http://www.w3.org/2000/svg" version="1.1" xmlns:xlink="http://www.w3.org/1999/xlink" xmlns:svgjs="http://svgjs.dev/svgjs" viewBox="0 0 9.194796765211127 3.286193747642393"><g transform="matrix(1,0,0,1,2.8299671935292823,1.0723468738211965)"><rect width="9.194796765211127" height="9.194796765211127" x="-2.8299671935292823" y="-4.026648382605563" fill="#ffffff"></rect><g><path d=" M 0.666 1.1414999999999997 L 0.417 0.7139999999999997 L 0.252 0.7139999999999997 L 0.252 1.1414999999999997 L 0.1155 1.1414999999999997 L 0.1155 0.09599999999999964 L 0.453 0.09599999999999964 Q 0.5715 0.09599999999999964 0.65325 0.13649999999999962 Q 0.735 0.1769999999999997 0.7755 0.24599999999999966 Q 0.8160000000000001 0.3149999999999997 0.8160000000000001 0.40349999999999975 Q 0.8160000000000001 0.5114999999999997 0.75375 0.5939999999999998 Q 0.6915 0.6764999999999997 0.5670000000000001 0.7034999999999998 L 0.8295 1.1414999999999997 L 0.666 1.1414999999999997 M 0.252 0.6044999999999997 L 0.453 0.6044999999999997 Q 0.5640000000000001 0.6044999999999997 0.6195 0.5497499999999997 Q 0.675 0.4949999999999998 0.675 0.40349999999999975 Q 0.675 0.31049999999999967 0.62025 0.25949999999999973 Q 0.5655 0.20849999999999969 0.453 0.20849999999999969 L 0.252 0.20849999999999969 L 0.252 0.6044999999999997 M 1.771456787109375 0.7814999999999998 L 1.114456787109375 0.7814999999999998 Q 1.121956787109375 0.9029999999999997 1.197706787109375 0.9712499999999997 Q 1.273456787109375 1.0394999999999996 1.381456787109375 1.0394999999999996 Q 1.4699567871093748 1.0394999999999996 1.5292067871093749 0.9982499999999997 Q 1.5884567871093749 0.9569999999999997 1.612456787109375 0.8879999999999997 L 1.759456787109375 0.8879999999999997 Q 1.726456787109375 1.0064999999999997 1.627456787109375 1.0807499999999997 Q 1.5284567871093748 1.1549999999999998 1.381456787109375 1.1549999999999998 Q 1.264456787109375 1.1549999999999998 1.1722067871093749 1.1024999999999998 Q 1.079956787109375 1.0499999999999998 1.027456787109375 0.9532499999999997 Q 0.974956787109375 0.8564999999999997 0.974956787109375 0.7289999999999996 Q 0.974956787109375 0.6014999999999997 1.0259567871093749 0.5054999999999997 Q 1.076956787109375 0.40949999999999975 1.169206787109375 0.3577499999999997 Q 1.261456787109375 0.3059999999999997 1.381456787109375 0.3059999999999997 Q 1.498456787109375 0.3059999999999997 1.5884567871093749 0.35699999999999976 Q 1.678456787109375 0.4079999999999997 1.7272067871093748 0.49724999999999975 Q 1.7759567871093749 0.5864999999999997 1.7759567871093749 0.6989999999999997 Q 1.7759567871093749 0.7379999999999998 1.771456787109375 0.7814999999999998 M 1.600456787109375 0.5362499999999997 Q 1.565956787109375 0.47999999999999976 1.506706787109375 0.45074999999999976 Q 1.4474567871093749 0.42149999999999976 1.375456787109375 0.42149999999999976 Q 1.2719567871093749 0.42149999999999976 1.199206787109375 0.4874999999999997 Q 1.126456787109375 0.5534999999999998 1.115956787109375 0.6704999999999997 L 1.6349567871093749 0.6704999999999997 Q 1.6349567871093749 0.5924999999999997 1.600456787109375 0.5362499999999997 M 2.075949462890625 1.1227499999999997 Q 2.000949462890625 1.0904999999999998 1.957449462890625 1.0327499999999998 Q 1.9139494628906248 0.9749999999999998 1.909449462890625 0.8999999999999997 L 2.050449462890625 0.8999999999999997 Q 2.0564494628906247 0.9614999999999998 2.108199462890625 1.0004999999999997 Q 2.159949462890625 1.0394999999999996 2.243949462890625 1.0394999999999996 Q 2.321949462890625 1.0394999999999996 2.366949462890625 1.0049999999999997 Q 2.411949462890625 0.9704999999999997 2.411949462890625 0.9179999999999997 Q 2.411949462890625 0.8639999999999997 2.363949462890625 0.8377499999999998 Q 2.3159494628906248 0.8114999999999997 2.215449462890625 0.7859999999999998 Q 2.123949462890625 0.7619999999999998 2.066199462890625 0.7372499999999997 Q 2.008449462890625 0.7124999999999997 1.9671994628906249 0.6637499999999997 Q 1.9259494628906249 0.6149999999999998 1.9259494628906249 0.5354999999999998 Q 1.9259494628906249 0.4724999999999997 1.963449462890625 0.4199999999999997 Q 2.000949462890625 0.3674999999999997 2.0699494628906248 0.33674999999999977 Q 2.1389494628906247 0.3059999999999997 2.227449462890625 0.3059999999999997 Q 2.363949462890625 0.3059999999999997 2.447949462890625 0.37499999999999967 Q 2.531949462890625 0.44399999999999973 2.5379494628906247 0.5639999999999997 L 2.401449462890625 0.5639999999999997 Q 2.3969494628906247 0.4994999999999997 2.3496994628906247 0.4604999999999997 Q 2.3024494628906247 0.42149999999999976 2.222949462890625 0.42149999999999976 Q 2.149449462890625 0.42149999999999976 2.105949462890625 0.45299999999999974 Q 2.062449462890625 0.4844999999999997 2.062449462890625 0.5354999999999998 Q 2.062449462890625 0.5759999999999997 2.088699462890625 0.6022499999999997 Q 2.1149494628906247 0.6284999999999997 2.154699462890625 0.6442499999999998 Q 2.194449462890625 0.6599999999999997 2.264949462890625 0.6794999999999998 Q 2.353449462890625 0.7034999999999998 2.408949462890625 0.7267499999999998 Q 2.464449462890625 0.7499999999999998 2.504199462890625 0.7964999999999998 Q 2.543949462890625 0.8429999999999997 2.545449462890625 0.9179999999999997 Q 2.545449462890625 0.9854999999999997 2.507949462890625 1.0394999999999996 Q 2.470449462890625 1.0934999999999997 2.402199462890625 1.1242499999999997 Q 2.333949462890625 1.1549999999999998 2.2454494628906247 1.1549999999999998 Q 2.1509494628906247 1.1549999999999998 2.075949462890625 1.1227499999999997 M 2.740408447265625 0.1589999999999997 Q 2.713408447265625 0.13199999999999967 2.713408447265625 0.09299999999999975 Q 2.713408447265625 0.053999999999999604 2.740408447265625 0.02699999999999969 Q 2.7674084472656246 -2.220446049250313e-16 2.8064084472656248 -2.220446049250313e-16 Q 2.843908447265625 -2.220446049250313e-16 2.870158447265625 0.02699999999999969 Q 2.8964084472656246 0.053999999999999604 2.8964084472656246 0.09299999999999975 Q 2.8964084472656246 0.13199999999999967 2.870158447265625 0.1589999999999997 Q 2.843908447265625 0.18599999999999972 2.8064084472656248 0.18599999999999972 Q 2.7674084472656246 0.18599999999999972 2.740408447265625 0.1589999999999997 M 2.8724084472656246 0.3194999999999997 L 2.8724084472656246 1.1414999999999997 L 2.7359084472656248 1.1414999999999997 L 2.7359084472656248 0.3194999999999997 L 2.8724084472656246 0.3194999999999997 M 3.6793659667968748 0.3442499999999997 Q 3.754365966796875 0.3839999999999997 3.797115966796875 0.4634999999999997 Q 3.8398659667968746 0.5429999999999997 3.8398659667968746 0.6569999999999998 L 3.8398659667968746 1.1414999999999997 L 3.704865966796875 1.1414999999999997 L 3.704865966796875 0.6764999999999997 Q 3.704865966796875 0.5534999999999998 3.6433659667968747 0.48824999999999974 Q 3.5818659667968746 0.4229999999999997 3.4753659667968746 0.4229999999999997 Q 3.367365966796875 0.4229999999999997 3.3036159667968747 0.4904999999999997 Q 3.2398659667968746 0.5579999999999997 3.2398659667968746 0.6869999999999997 L 3.2398659667968746 1.1414999999999997 L 3.1033659667968747 1.1414999999999997 L 3.1033659667968747 0.03149999999999964 L 3.2398659667968746 0.03149999999999964 L 3.2398659667968746 0.4364999999999998 Q 3.2803659667968748 0.3734999999999997 3.351615966796875 0.33899999999999975 Q 3.422865966796875 0.30449999999999977 3.5113659667968746 0.30449999999999977 Q 3.604365966796875 0.30449999999999977 3.6793659667968748 0.3442499999999997 M 4.790887939453125 0.3194999999999997 L 4.790887939453125 1.1414999999999997 L 4.654387939453125 1.1414999999999997 L 4.654387939453125 1.0199999999999998 Q 4.615387939453125 1.0829999999999997 4.545637939453124 1.1182499999999997 Q 4.475887939453124 1.1534999999999997 4.391887939453125 1.1534999999999997 Q 4.295887939453125 1.1534999999999997 4.219387939453124 1.1137499999999998 Q 4.142887939453125 1.0739999999999998 4.098637939453125 0.9944999999999997 Q 4.054387939453124 0.9149999999999997 4.054387939453124 0.8009999999999997 L 4.054387939453124 0.3194999999999997 L 4.189387939453125 0.3194999999999997 L 4.189387939453125 0.7829999999999997 Q 4.189387939453125 0.9044999999999997 4.250887939453125 0.9697499999999997 Q 4.312387939453124 1.0349999999999997 4.418887939453125 1.0349999999999997 Q 4.528387939453125 1.0349999999999997 4.591387939453124 0.9674999999999997 Q 4.654387939453125 0.8999999999999997 4.654387939453125 0.7709999999999997 L 4.654387939453125 0.3194999999999997 L 4.790887939453125 0.3194999999999997 M 5.279909912109375 0.3524999999999997 Q 5.360909912109375 0.3059999999999997 5.4644099121093745 0.3059999999999997 Q 5.575409912109374 0.3059999999999997 5.663909912109375 0.3584999999999997 Q 5.752409912109375 0.4109999999999997 5.803409912109375 0.5062499999999998 Q 5.854409912109375 0.6014999999999997 5.854409912109375 0.7274999999999997 Q 5.854409912109375 0.8519999999999998 5.803409912109375 0.9494999999999998 Q 5.752409912109375 1.0469999999999997 5.663159912109375 1.1009999999999998 Q 5.573909912109375 1.1549999999999998 5.4644099121093745 1.1549999999999998 Q 5.357909912109375 1.1549999999999998 5.277659912109375 1.1084999999999998 Q 5.197409912109375 1.0619999999999998 5.156909912109374 0.9899999999999998 L 5.156909912109374 1.1414999999999997 L 5.020409912109375 1.1414999999999997 L 5.020409912109375 0.03149999999999964 L 5.156909912109374 0.03149999999999964 L 5.156909912109374 0.4724999999999997 Q 5.198909912109374 0.3989999999999997 5.279909912109375 0.3524999999999997 M 5.677409912109375 0.5654999999999997 Q 5.639909912109375 0.4964999999999997 5.576159912109374 0.4604999999999997 Q 5.512409912109375 0.42449999999999977 5.435909912109374 0.42449999999999977 Q 5.360909912109375 0.42449999999999977 5.297159912109374 0.4612499999999997 Q 5.233409912109375 0.4979999999999998 5.195159912109375 0.5677499999999998 Q 5.156909912109374 0.6374999999999997 5.156909912109374 0.7289999999999996 Q 5.156909912109374 0.8219999999999997 5.195159912109375 0.8917499999999997 Q 5.233409912109375 0.9614999999999998 5.297159912109374 0.9982499999999997 Q 5.360909912109375 1.0349999999999997 5.435909912109374 1.0349999999999997 Q 5.512409912109375 1.0349999999999997 5.576159912109374 0.9982499999999997 Q 5.639909912109375 0.9614999999999998 5.677409912109375 0.8917499999999997 Q 5.714909912109375 0.8219999999999997 5.714909912109375 0.7274999999999997 Q 5.714909912109375 0.6344999999999997 5.677409912109375 0.5654999999999997" fill="#102036" fill-rule="nonzero"></path></g><g></g><g clip-path="url(#SvgjsClipPath1002)"><g clip-path="url(#SvgjsClipPath1000044c406e-d74f-4b62-acfc-ce85f1b5f525)"><path d=" M -0.5812732770903442 0.6954317440683584 L -0.6714589870855399 0.6052460340731622 L -0.6714589870855399 0.8595697362596153 L -0.5812732770903442 0.9497554462548115 L -0.5812732770903442 1.767965300186228 L -0.3999999999999999 1.767965300186228 L -0.3999999999999999 0.8744503784088229 L -0.40112732137494 0.8744503784088229 Z" fill="#3682ae" transform="matrix(1,0,0,1,0,0)" fill-rule="nonzero"></path></g><g clip-path="url(#SvgjsClipPath1000044c406e-d74f-4b62-acfc-ce85f1b5f525)"><path d=" M -2.112852097083761 1.2261746473900879 L -2.2028123428039694 1.2261746473900879 L -2.2028123428039694 0.1854315540455248 L -2.3840856198943134 0.36557750976092884 L -2.3840856198943134 1.4074479244804312 L -2.112852097083761 1.4074479244804312 Z" fill="#3682ae" transform="matrix(1,0,0,1,0,0)" fill-rule="nonzero"></path></g><g clip-path="url(#SvgjsClipPath1000044c406e-d74f-4b62-acfc-ce85f1b5f525)"><path d=" M -0.5812732770903442 0.1854315540455248 L -0.7614192328057479 0.004158276955180562 L -0.9415651885211525 -0.17598767876022353 L -1.1217111442365566 -0.35613363447562774 L -1.136591786385764 -0.37101427662483505 L -1.2648809588539303 -0.24385242553160863 L -1.3018570999519605 -0.20665082015859026 L -1.3309419914254113 -0.17779139296012753 L -1.203554676057197 -0.05040407759191301 L -1.136591786385764 -0.11669057443838204 L -1.1217111442365566 -0.10090807518922285 L -0.9415651885211525 0.0792378805261813 L -0.7614192328057479 0.25938383624158545 L -0.5812732770903442 0.4395297919569896 L -0.3999999999999999 0.619675747672394 L -0.3999999999999999 0.36557750976092884 Z" fill="#3682ae" transform="matrix(1,0,0,1,0,0)" fill-rule="nonzero"></path></g><g clip-path="url(#SvgjsClipPath1000044c406e-d74f-4b62-acfc-ce85f1b5f525)"><path d=" M -1.8425204313731611 0.07946334480116946 L -1.662374475657757 -0.1006826109142348 L -1.5647484445879574 -0.19921049908398658 L -1.4820030556673647 -0.28082856662963895 L -1.3918173456721687 -0.37101427662483505 L -1.264655494578942 -0.4993034490930015 L -1.3018570999519605 -0.5362795901910319 L -1.3920428099471567 -0.6264653001862279 L -2.0226663870885653 0.004158276955180562 L -2.0226663870885653 0.38767300870975197 L -1.8425204313731611 0.2075270529943477 Z" fill="#3682ae" transform="matrix(1,0,0,1,0,0)" fill-rule="nonzero"></path></g><g clip-path="url(#SvgjsClipPath1000044c406e-d74f-4b62-acfc-ce85f1b5f525)"><path d=" M -0.9415651885211525 1.5875938801958358 L -2.3840856198943134 1.5875938801958358 L -2.3840856198943134 1.767965300186228 L -0.7614192328057479 1.767965300186228 L -0.7614192328057479 1.4976336344756276 L -0.9415651885211525 1.4976336344756276 Z" fill="#3682ae" transform="matrix(1,0,0,1,0,0)" fill-rule="nonzero"></path></g><g clip-path="url(#SvgjsClipPath1000044c406e-d74f-4b62-acfc-ce85f1b5f525)"><path d=" M -0.9415651885211525 0.3340125112626102 L -1.0421222551657958 0.23345544461796663 L -1.2646554945789426 0.010696740929832194 L -1.3920428099471567 -0.11646511016339423 L -1.4375865934947307 -0.07092132661582018 L -1.4822285199423528 -0.026504864443186005 L -1.6080375853856514 0.0993042010001125 L -1.8425204313731611 0.3337870469876223 L -2.0226663870885653 0.5139330027030267 L -2.0226663870885653 1.407447924480432 L -0.7614192328057483 1.407447924480432 L -0.7614192328057483 0.5150603240779663 L -0.7720160537301841 0.5035616460535786 L -0.9415651885211525 0.3340125112626102 Z M -0.9415651885211525 1.2261746473900879 L -0.9415651885211525 1.2261746473900879 L -1.8425204313731611 1.2261746473900879 L -1.8425204313731611 0.5892380705490152 L -1.662374475657757 0.4090921148336113 L -1.4822285199423528 0.22894615911820704 L -1.3920428099471567 0.138760449123011 L -1.3018570999519605 0.22894615911820704 L -1.1217111442365566 0.4090921148336113 L -0.9415651885211525 0.5892380705490152 L -0.9415651885211525 1.2261746473900879 Z" fill="#004a80" transform="matrix(1,0,0,1,0,0)" fill-rule="nonzero"></path></g><g clip-path="url(#SvgjsClipPath1000044c406e-d74f-4b62-acfc-ce85f1b5f525)"><path d=" M -1.679509760556844 0.6568773530454122 L -1.679509760556844 1.063389440848758 L -1.104575859337469 1.063389440848758 L -1.104575859337469 0.6568773530454122 L -1.3920428099471567 0.36941040243572476 Z" fill="#a5b2ba" transform="matrix(1,0,0,1,0,0)" fill-rule="nonzero"></path></g></g></g><defs><clipPath id="SvgjsClipPath1002"><path d=" M -2.3840856198943134 -0.6264653001862279 h 1.9840856198943135 v 2.3944306003724556 h -1.9840856198943135 Z"></path></clipPath><clipPath id="SvgjsClipPath1000044c406e-d74f-4b62-acfc-ce85f1b5f525"><path d=" M -2.3840856198943134 -0.6264653001862279 L -0.3999999999999999 -0.6264653001862279 L -0.3999999999999999 1.7679653001862277 L -2.3840856198943134 1.7679653001862277 Z"></path></clipPath></defs></svg>